PathFileType	4	(X/Y/Z)	Kaydara	
DataRate	CameraRate	NumFrames	NumMarkers	Units	OrigDataRate	OrigDataStartFrame	OrigNumFrames	
60.00	60.00	4	74	mm	60.00	330	242	
Frame#	Time	Z_lasi			Z_rasi			Z_rpsi			Z_lpsi			Z_fneck			Z_bneck			Z_fhead			Z_rhead			Z_lhead			Z_rshld			Z_relbtop			Z_relbext			Z_relblow			Z_rwrext			Z_rwrtop			Z_rwrlow			Z_lshld			Z_lelbext			Z_lelblow			Z_lelbtop			Z_lwrext			Z_lwrtop			Z_rtopleg			Z_ltopleg			Z_rkneefr			Z_rkneebk			Z_rkneeis			Z_lkneefr			Z_lknssbk			Z_lkneeis			Z_rankfr			Z_rankis			Z_rankbk			Z_lankfr			Z_lankbk			Z_lankis			A_lasi			A_rasi			A_rpsi			A_lpsi			A_fneck			A_bneck			A_fhead			A_rhead			A_lhead			A_rshld			A_relbtop			A_relbext			A_relblow			A_rwrext			A_rwrtop			A_rwrlow			A_lshld			A_lelbext			A_lelblow			A_lelbtop			A_lwrext			A_lwrtop			A_lwrlow			A_rtopleg			A_ltopleg			A_rkneefr			A_rkneebk			A_rkneeis			A_lkneefr			A_lknssbk			A_lkneeis			A_rankfr			A_rankis			A_rankbk			A_lankfr			A_lankbk			A_lankis			Z_lwrlow			
		X1	Y1	Z1	X2	Y2	Z2	X3	Y3	Z3	X4	Y4	Z4	X5	Y5	Z5	X6	Y6	Z6	X7	Y7	Z7	X8	Y8	Z8	X9	Y9	Z9	X10	Y10	Z10	X11	Y11	Z11	X12	Y12	Z12	X13	Y13	Z13	X14	Y14	Z14	X15	Y15	Z15	X16	Y16	Z16	X17	Y17	Z17	X18	Y18	Z18	X19	Y19	Z19	X20	Y20	Z20	X21	Y21	Z21	X22	Y22	Z22	X23	Y23	Z23	X24	Y24	Z24	X25	Y25	Z25	X26	Y26	Z26	X27	Y27	Z27	X28	Y28	Z28	X29	Y29	Z29	X30	Y30	Z30	X31	Y31	Z31	X32	Y32	Z32	X33	Y33	Z33	X34	Y34	Z34	X35	Y35	Z35	X36	Y36	Z36	X37	Y37	Z37	X38	Y38	Z38	X39	Y39	Z39	X40	Y40	Z40	X41	Y41	Z41	X42	Y42	Z42	X43	Y43	Z43	X44	Y44	Z44	X45	Y45	Z45	X46	Y46	Z46	X47	Y47	Z47	X48	Y48	Z48	X49	Y49	Z49	X50	Y50	Z50	X51	Y51	Z51	X52	Y52	Z52	X53	Y53	Z53	X54	Y54	Z54	X55	Y55	Z55	X56	Y56	Z56	X57	Y57	Z57	X58	Y58	Z58	X59	Y59	Z59	X60	Y60	Z60	X61	Y61	Z61	X62	Y62	Z62	X63	Y63	Z63	X64	Y64	Z64	X65	Y65	Z65	X66	Y66	Z66	X67	Y67	Z67	X68	Y68	Z68	X69	Y69	Z69	X70	Y70	Z70	X71	Y71	Z71	X72	Y72	Z72	X73	Y73	Z73	X74	Y74	Z74	

122	5.483	-146.59765	1093.37883	-226.70494	-321.31992	1098.35365	-104.71659	-461.06194	1129.61159	-238.52739	-261.32122	1119.26041	-387.18109	-264.53978	1454.45953	-185.98959	-309.71987	1519.48654	-283.07190	-271.99186	1660.15854	-81.73701	-377.46071	1653.08517	-212.19736	-233.73913	1654.26071	-247.21910	-467.48932	1455.64072	-154.55809	-427.80277	1231.11298	31.48477	-457.20646	1154.25400	28.30459	-404.85134	1144.73114	-7.34052	-293.86444	1146.66260	188.89793	-311.70399	1189.98619	202.30734	-282.77580	1209.72694	175.32928	-140.70387	1459.95956	-353.70148	-87.88669	1147.28516	-460.03017	-125.79421	1121.29295	-403.10150	-36.56580	1151.11923	-404.59465	0.76621	901.84174	-367.07176	28.06184	903.90877	-406.44367	-493.58429	929.25072	-201.28607	-144.61112	900.06424	-321.67988	-457.50729	424.54540	-145.55639	-516.13411	458.75748	-206.47425	-394.52137	431.21815	-219.42629	-179.65616	433.72837	-263.74239	-217.46698	457.93625	-363.73486	-272.85133	424.33468	-253.42381	-503.47008	189.11674	-180.37786	-447.58533	181.11618	-215.43015	-523.86581	187.25168	-252.56176	-199.45848	166.57331	-302.47972	-264.54334	170.40871	-350.87307	-264.05342	176.59048	-271.59662	-11.76935	1037.97668	860.68398	133.79998	1047.42035	800.62187	213.69974	1033.50815	945.38460	32.67788	1038.76678	980.33775	94.63387	1379.24881	921.21002	166.30991	1406.45538	1039.23851	94.97646	1589.23630	871.32385	234.07122	1555.58914	966.31721	85.85191	1559.21906	1037.75482	263.32176	1365.25360	887.45255	181.99169	1259.18007	655.51132	199.89752	1197.57744	656.97571	137.71601	1224.39308	675.94521	49.34051	1217.21718	447.64915	32.62391	1186.06979	474.37664	30.29343	1251.09642	463.06854	-29.30445	1356.22757	1021.26137	-91.24078	1056.18515	993.89786	-46.15942	1040.48248	1006.50978	-70.30784	1060.49538	944.64172	-144.94091	843.24699	909.90768	-163.71029	865.60402	873.79196	-113.00411	844.70947	881.24557	268.61237	863.40073	860.04753	-71.97692	877.83714	934.48952	113.09569	423.57925	768.16841	215.12995	470.37693	773.12225	184.93908	414.51248	682.32933	114.36521	449.32568	918.18687	-4.91466	465.52315	943.96873	46.13128	422.80960	838.59314	252.50320	204.22564	826.81526	187.81931	197.64055	856.66748	253.04407	224.42282	905.89859	47.49438	163.93103	875.23094	22.74481	158.85932	940.75722	108.28273	169.53962	922.40326	-7.21694	899.69788	-436.38420 
123	5.500	-147.72267	1093.33687	-229.36121	-319.18507	1098.16833	-104.31757	-461.88675	1129.79088	-235.52561	-264.84240	1119.95575	-387.64339	-265.03399	1454.11972	-183.60966	-311.74318	1519.61273	-279.76574	-273.15317	1659.52927	-78.23349	-379.12304	1652.35275	-208.15060	-235.66219	1654.25873	-243.85208	-466.83849	1454.09378	-148.25362	-421.90369	1230.55130	37.81089	-450.73334	1153.69812	34.62277	-398.57903	1144.59152	-1.60441	-285.46152	1146.25381	193.49375	-303.30492	1189.34044	207.22574	-275.11702	1209.57603	180.29123	-144.07028	1461.21811	-353.81699	-92.91213	1149.88625	-465.14122	-130.44022	1123.42918	-408.40485	-41.05242	1153.03383	-410.23457	-3.57267	903.85643	-374.87595	23.21744	905.85121	-414.81716	-494.16145	929.17488	-198.89246	-147.01222	900.31425	-324.69170	-457.46674	424.54292	-145.73240	-516.65653	458.66776	-206.01898	-395.23403	431.04733	-220.39267	-180.17246	433.97125	-264.69345	-218.84888	457.90215	-364.49539	-273.56419	424.34258	-253.74853	-503.41557	188.95781	-180.23645	-447.79541	181.08139	-215.53740	-524.31416	187.10493	-252.23671	-199.83585	166.74051	-302.82970	-265.04711	170.31685	-350.97729	-264.13160	176.59973	-271.65279	-11.46532	1037.55905	854.18556	133.01980	1048.03970	791.76498	215.54579	1035.40047	934.99237	35.30783	1039.21989	974.37386	94.83840	1380.53497	911.37268	167.79943	1406.37970	1029.45496	98.93291	1590.92911	861.79977	237.24695	1554.57062	956.70647	88.91855	1560.64316	1028.29086	262.77948	1365.80246	876.15952	179.19796	1258.91922	645.42458	197.22452	1197.34169	646.69678	135.22257	1224.23706	666.28914	44.35111	1216.85753	439.05342	28.03200	1185.51613	465.70244	25.33463	1250.54176	454.71329	-28.44860	1357.96799	1012.07428	-91.49313	1058.32451	986.01906	-46.94045	1042.36664	999.19365	-69.64917	1062.05399	937.09152	-144.88776	844.80614	903.24150	-162.50921	866.76788	866.41380	-112.17265	845.92758	875.20096	269.73192	864.79645	848.98895	-68.69281	877.72789	929.74236	113.63788	421.91612	756.95518	215.19148	469.44263	759.64119	181.56494	417.99126	667.91130	116.23682	449.16039	912.83142	-2.50958	465.85762	939.92790	47.28485	422.37289	833.80905	255.90908	199.41261	792.87483	192.95292	190.51233	825.39551	260.08266	213.84695	873.36304	48.08268	163.50397	874.10645	23.65083	159.29941	939.84383	109.26425	169.49060	921.03989	-12.49686	901.98059	-444.13334 
124	5.517	-149.90395	1093.11783	-233.50826	-317.44085	1097.77451	-104.06680	-462.57446	1129.85435	-232.58261	-268.44410	1120.74661	-388.37517	-265.46316	1453.69034	-181.29995	-313.83957	1519.67545	-276.28574	-274.34978	1658.87680	-74.58839	-380.80910	1651.53046	-204.16185	-237.54801	1654.13940	-240.39421	-465.97111	1452.38678	-141.74370	-415.38948	1230.28564	44.18296	-443.35289	1153.04482	41.05900	-391.82007	1144.40086	4.30473	-277.08973	1146.28098	198.77949	-294.97265	1189.07509	212.71105	-266.99986	1209.46243	185.50613	-147.56854	1462.43256	-353.88054	-98.26420	1152.38243	-469.95052	-135.19615	1125.55275	-413.01235	-45.69075	1154.96597	-415.52620	-8.01590	905.77744	-381.99600	18.05790	907.70164	-422.36843	-494.46106	929.13338	-196.50919	-149.50625	900.68161	-327.93243	-457.14787	424.41460	-146.24807	-517.44881	458.55968	-205.38019	-396.02009	430.94200	-222.14817	-180.71331	434.23698	-265.70700	-220.12211	457.87033	-365.29499	-273.80661	424.33350	-253.95128	-503.16292	188.70611	-180.58973	-448.31505	180.98200	-215.75161	-524.96613	186.92465	-251.88129	-199.68296	167.01246	-303.53781	-265.49084	170.27348	-351.11919	-264.18869	176.67349	-271.71793	-10.96406	1036.89674	847.57057	132.54496	1048.27049	782.82021	217.67376	1036.90201	924.56070	37.84670	1039.40834	966.33652	95.36626	1381.48895	901.18370	169.43405	1406.10001	1019.24606	102.69753	1592.40891	852.23259	240.49992	1553.26019	946.92879	92.05152	1561.85776	1018.61633	262.28207	1366.25351	864.23401	176.35681	1258.37814	634.92958	194.77961	1196.99219	635.90435	132.64056	1223.87268	656.37077	39.40825	1216.06911	430.14088	23.22644	1184.64088	456.79710	20.47626	1249.73717	446.03722	-27.31468	1359.20990	1002.78915	-91.51963	1059.80789	978.28255	-47.30963	1043.79639	992.40166	-68.60189	1062.88940	929.89235	-144.74504	845.76118	897.23534	-161.51768	867.37869	859.65164	-111.56084	846.38184	870.10124	271.62716	865.83969	837.04269	-65.65070	877.94861	925.24338	115.51579	420.02686	747.65762	216.53713	467.96341	745.98343	177.92017	420.43751	654.42245	118.18647	449.01817	907.32994	-0.32935	466.02848	935.89615	48.24180	422.03663	829.29634	258.12643	195.25675	758.71170	197.61753	184.69980	795.01846	267.98954	204.21806	839.61220	48.62028	163.01004	873.13766	24.53291	159.81110	938.83850	110.24416	169.44405	919.42535	-17.97527	904.16069	-451.40892 
125	5.533	-149.70694	1092.33856	-232.83569	-315.79996	1097.24083	-103.97384	-463.00648	1129.79584	-229.54908	-272.09320	1121.54152	-389.20296	-265.50444	1453.27545	-178.80489	-315.90811	1519.60678	-272.63336	-275.46858	1658.20175	-70.78474	-382.42352	1650.58472	-199.83217	-239.36550	1653.96423	-236.83691	-464.78962	1450.75195	-134.69752	-408.42934	1229.88640	50.69162	-435.76820	1152.51541	47.63127	-384.43436	1144.39400	10.32683	-268.06595	1146.24908	203.77783	-286.14824	1189.13452	218.20398	-258.40935	1209.54857	190.86861	-151.17738	1463.73383	-354.07097	-103.76029	1154.82132	-474.11774	-140.21011	1127.67975	-417.12376	-50.77034	1156.88583	-420.36915	-13.80416	907.13501	-389.23820	12.64045	909.54781	-429.12346	-494.67037	929.16420	-194.34334	-152.03421	900.95848	-331.52454	-457.11258	424.27280	-146.90822	-518.30917	458.39081	-205.05816	-397.33047	430.88524	-223.80060	-181.29629	434.51160	-266.91454	-221.41989	457.79018	-366.35456	-274.12270	424.41917	-254.38272	-503.38249	188.59245	-180.75024	-448.81794	180.94099	-216.27941	-525.77187	186.65985	-251.91572	-199.95377	167.17129	-304.00116	-266.00702	170.20895	-351.22375	-264.28862	176.76199	-271.87128	-10.11943	1036.04103	840.90294	132.28027	1048.06862	773.68706	219.77240	1037.97379	913.91655	41.09069	1038.75595	957.55295	95.82550	1382.17316	890.90813	170.74841	1405.84518	1008.43475	106.14406	1593.66745	842.69409	243.20910	1551.92657	937.46414	95.13118	1562.64359	1008.82538	261.86951	1366.66031	851.81290	173.56182	1257.50473	623.99376	191.76556	1196.03798	625.17231	129.89381	1223.38905	646.15105	34.44736	1214.74838	420.93700	18.01758	1183.39722	447.69432	15.66736	1248.50914	436.90971	-26.12724	1360.03479	993.54881	-91.41153	1060.93971	970.88272	-47.23720	1044.96223	986.18340	-67.64688	1063.27469	922.73018	-144.82912	846.35887	891.78192	-160.39885	867.43134	853.63602	-110.87162	846.25038	865.19188	272.89444	866.36147	825.88951	-62.44787	877.85210	920.45837	118.80873	418.01891	739.45175	217.78761	465.64957	733.51662	174.50096	421.92467	642.52609	119.90497	448.64388	902.32285	1.83009	466.15250	931.85883	49.13809	421.45321	825.08675	259.25434	192.07428	725.03967	201.96445	179.81945	765.71243	276.23451	196.00554	805.08240	49.21855	162.53151	872.16942	25.50380	160.06624	937.97279	111.00192	169.15384	917.27638	-23.55907	906.34842	-457.83649 
